<svg xmlns="http://www.w3.org/2000/svg" xmlns:xlink="http://www.w3.org/1999/xlink" style="display: none;">
<defs>
  <symbol id="logo-exts" viewBox="0 0 70 40">
  <path d="M1.217 18.07h6.3v1.56H2.82v1.853h3.59v1.585H2.82v2.058h4.698v1.56h-6.3M9.123 25.622c0-.315.025-.412.222-.678l1.91-2.566-1.91-2.566c-.197-.266-.222-.363-.222-.678V18.07h1.542v.835c0 .12 0 .145.06.218l1.543 2.057 1.553-2.057c.063-.073.063-.097.063-.218v-.836h1.53v1.064c0 .315-.013.412-.21.678l-1.924 2.566 1.922 2.566c.198.266.21.363.21.678v1.065h-1.53v-.835c0-.12 0-.145-.06-.218l-1.554-2.058-1.542 2.058c-.06.073-.06.097-.06.218v.835H9.122v-1.065zM19.088 19.63h-2.343v-1.56h6.302v1.56H20.69v7.057H19.09M24.65 18.07h6.303v1.56h-4.7v1.853h3.59v1.585h-3.59v2.058h4.7v1.56H24.65M32.927 18.07h1.554l3.145 5.397V18.07h1.603v8.617h-1.516l-3.182-5.543v5.543h-1.603M41.178 24.666l1.505-.388.074.23c.123.4.308.618.678.618h1.788c.358 0 .654-.303.654-.666v-.424c0-.266-.173-.52-.42-.58l-2.774-.74c-.876-.23-1.48-1.1-1.48-2.044v-.4c0-1.27.95-2.203 2.244-2.203h1.727c1.196 0 2.17.87 2.318 2.008l-1.492.4-.074-.23c-.123-.4-.31-.617-.666-.617h-1.788c-.37 0-.666.304-.666.666v.303c0 .41.234.653.654.762l2.306.58c.962.243 1.677 1.066 1.677 2.094v.315c0 1.296-.987 2.337-2.306 2.337h-1.615c-1.21 0-2.196-.872-2.344-2.02M48.986 25.126h1.233V19.63h-1.234v-1.56h4.082v1.56h-1.233v5.496h1.233v1.56h-4.082M58.73 25.126c.368 0 .677-.303.677-.666v-4.164c0-.363-.31-.665-.678-.665h-1.765c-.37 0-.665.303-.665.666v4.164c0 .363.295.666.665.666h1.764zm-4.02-.74V20.37c0-1.272 1.047-2.3 2.342-2.3h1.615c1.283 0 2.343 1.028 2.343 2.3v4.017c0 1.27-1.06 2.3-2.343 2.3h-1.615c-1.295 0-2.343-1.03-2.343-2.3zM63.108 18.07h1.554l3.144 5.397V18.07h1.603v8.617h-1.517l-3.182-5.543v5.543H63.11M.822 37.694l1.505-.388.074.23c.125.4.31.618.68.618h1.787c.358 0 .654-.303.654-.666v-.424c0-.266-.172-.52-.42-.58l-2.773-.74c-.876-.23-1.48-1.1-1.48-2.044v-.4c0-1.27.95-2.203 2.244-2.203H4.82c1.196 0 2.17.872 2.318 2.01l-1.492.4-.074-.23c-.123-.4-.308-.618-.666-.618H3.116c-.37 0-.666.302-.666.664v.303c0 .412.234.654.654.763l2.306.58c.962.243 1.677 1.066 1.677 2.094v.315c0 1.294-.987 2.335-2.306 2.335H3.167c-1.21 0-2.196-.872-2.344-2.02M8.876 37.415v-4.018c0-1.27 1.048-2.3 2.343-2.3h1.627c1.196 0 2.17.872 2.33 2.01l-1.504.4-.086-.23c-.148-.4-.296-.618-.666-.618h-1.787c-.37 0-.666.302-.666.664v4.164c0 .363.296.666.666.666h1.763c.37 0 .58-.206.69-.617l.062-.23 1.505.387c-.148 1.15-1.122 2.02-2.318 2.02H11.22c-1.296 0-2.344-1.028-2.344-2.3M16.93 31.097h1.603v3.426h3.095v-3.426h1.603v8.618H21.63v-3.62h-3.095v3.62H16.93M29.35 38.154c.37 0 .678-.303.678-.666v-4.164c0-.363-.31-.665-.678-.665h-1.764c-.37 0-.665.3-.665.664v4.164c0 .363.296.666.666.666h1.764zm-4.02-.74v-4.017c0-1.27 1.048-2.3 2.343-2.3h1.615c1.283 0 2.343 1.03 2.343 2.3v4.018c0 1.27-1.06 2.3-2.342 2.3h-1.615c-1.295 0-2.344-1.03-2.344-2.3zM37.503 38.154c.37 0 .678-.303.678-.666v-4.164c0-.363-.308-.665-.677-.665H35.74c-.37 0-.667.3-.667.664v4.164c0 .363.296.666.666.666h1.763zm-4.02-.74v-4.017c0-1.27 1.047-2.3 2.343-2.3h1.615c1.283 0 2.344 1.03 2.344 2.3v4.018c0 1.27-1.06 2.3-2.343 2.3h-1.614c-1.296 0-2.344-1.03-2.344-2.3zM41.88 31.097h1.605v7.057h4.266v1.56h-5.87M1.2.317h9.603v2.38h-7.16v2.82h5.47v2.418h-5.47v3.135h7.16v2.38H1.2M19.957 5.684c.563 0 1.014-.442 1.014-.996V3.71c0-.553-.45-1.014-1.013-1.014h-3.703v2.988h3.703zM13.81.317h6.034c1.954 0 3.57 1.568 3.57 3.504v.758c0 1.918-1.616 3.504-3.57 3.504h-3.59v5.368H13.81V.317zM25.858.317h9.603v2.38h-7.158v2.82h5.468v2.418h-5.468v5.514h-2.444M37.81.317h2.445V11.07h6.502v2.38H37.81"/>
</symbol>

<symbol id="link" viewBox="0 0 80 80">
<title>link</title>
<path d="M29.298,63.471l-4.048,4.02c-3.509,3.478-9.216,3.481-12.723,0 c-1.686-1.673-2.612-3.895-2.612-6.257s0.927-4.585,2.611-6.258l14.9-14.783c3.088-3.062,8.897-7.571,13.131-3.372 c1.943,1.93,5.081,1.917,7.01-0.025c1.93-1.942,1.918-5.081-0.025-7.009c-7.197-7.142-17.834-5.822-27.098,3.37L5.543,47.941 C1.968,51.49,0,56.21,0,61.234s1.968,9.743,5.544,13.292C9.223,78.176,14.054,80,18.887,80c4.834,0,9.667-1.824,13.348-5.476 l4.051-4.021c1.942-1.928,1.953-5.066,0.023-7.009C34.382,61.553,31.241,61.542,29.298,63.471z M74.454,6.044 c-7.73-7.67-18.538-8.086-25.694-0.986l-5.046,5.009c-1.943,1.929-1.955,5.066-0.025,7.009s5.068,1.954,7.011,0.025l5.044-5.006 c3.707-3.681,8.561-2.155,11.727,0.986c1.688,1.673,2.615,3.896,2.615,6.258c0,2.363-0.928,4.586-2.613,6.259l-15.897,15.77 c-7.269,7.212-10.679,3.827-12.134,2.383c-1.943-1.929-5.08-1.917-7.01,0.025s-1.918,5.081,0.025,7.009 c3.337,3.312,7.146,4.954,11.139,4.954c4.889,0,10.053-2.462,14.963-7.337l15.897-15.77C78.03,29.083,80,24.362,80,19.338 C80,14.316,78.03,9.595,74.454,6.044z"/></symbol>
<symbol id="blocks" viewBox="0 0 459 459">
<title>blocks</title>
<path d="M0,255h51v-51H0V255z M0,357h51v-51H0V357z M0,153h51v-51H0V153z M102,255h357v-51H102V255z M102,357h357v-51H102V357z M102,102v51h357v-51H102z"/></symbol>
<symbol id="view-off" viewBox="0 0 558.45 558.45">
<title>view-off</title>
<path d="M280.5,138.975c71.4,0,127.5,56.1,127.5,127.5c0,15.3-2.55,33.15-10.2,45.9l73.95,73.949 c38.25-33.149,68.85-73.949,86.7-119.85c-43.351-112.2-153-191.25-280.5-191.25c-35.7,0-68.85,7.65-102,17.85l56.1,56.1 C247.35,141.525,265.2,138.975,280.5,138.975z M25.5,70.125l58.65,58.65l10.2,10.2c-43.35,33.15-76.5,76.5-94.35,127.5 c43.35,112.2,153,191.25,280.5,191.25c38.25,0,76.5-7.65,112.2-20.4l10.2,10.2l73.949,73.95l33.15-33.15L58.65,36.975L25.5,70.125 z M165.75,210.375l38.25,38.25c0,7.65,0,12.75,0,17.85c0,43.35,33.15,76.5,76.5,76.5c5.1,0,10.2,0,17.85-2.55l38.25,38.25 c-17.85,10.2-35.699,15.3-56.1,15.3c-71.4,0-127.5-56.1-127.5-127.5C153,246.075,158.1,228.225,165.75,210.375z M275.4,189.975 l79.05,79.05c0-2.55,0-2.55,0-5.1c0-43.35-33.15-76.5-76.5-76.5C277.95,189.975,277.95,189.975,275.4,189.975z"/></symbol>
<symbol id="text" viewBox="0 0 459 459">
<title>text</title>
<path d="M408,0H51C22.95,0,0,22.95,0,51v357c0,28.05,22.95,51,51,51h357c28.05,0,51-22.95,51-51V51C459,22.95,436.05,0,408,0z M357,153H102v-51h255V153z M357,255H102v-51h255V255z M280.5,357H102v-51h178.5V357z"/></symbol>
<symbol id="circle-detract" viewBox="0 0 510 510">
<title>circle-detract</title>
<path d="M255,0C114.75,0,0,114.75,0,255s114.75,255,255,255s255-114.75,255-255S395.25,0,255,0z M255,459 c-112.2,0-204-91.8-204-204S142.8,51,255,51s204,91.8,204,204S367.2,459,255,459z M153,280.5h204v-51H153V280.5z"/></symbol>
<symbol id="program" viewBox="0 0 561 561">
<title>program</title>
<path d="M102,311.1v102L280.5,510L459,413.1v-102L280.5,408L102,311.1z M280.5,51L0,204l280.5,153L510,232.05V408h51V204L280.5,51 z"/></symbol>
<symbol id="attachment" viewBox="0 0 510 510">
<title>attachment</title>
<path d="M140.25,395.25C63.75,395.25,0,331.5,0,255s63.75-140.25,140.25-140.25H408c56.1,0,102,45.9,102,102 c0,56.1-45.9,102-102,102H191.25c-35.7,0-63.75-28.05-63.75-63.75s28.05-63.75,63.75-63.75H382.5v38.25H191.25 c-15.3,0-25.5,10.2-25.5,25.5s10.2,25.5,25.5,25.5H408c35.7,0,63.75-28.05,63.75-63.75S443.7,153,408,153H140.25 c-56.1,0-102,45.9-102,102c0,56.1,45.9,102,102,102H382.5v38.25H140.25z"/></symbol>
<symbol id="bookmark-active" viewBox="0 0 459 459">
<title>bookmark-active</title>
<path d="M357,0H102C73.95,0,51,22.95,51,51v408l178.5-76.5L408,459V51C408,22.95,385.05,0,357,0z"/></symbol>
<symbol id="refresh" viewBox="0 0 510 510">
<title>refresh</title>
<path d="M255,102V0L127.5,127.5L255,255V153c84.15,0,153,68.85,153,153c0,84.15-68.85,153-153,153c-84.15,0-153-68.85-153-153H51 c0,112.2,91.8,204,204,204s204-91.8,204-204S367.2,102,255,102z"/></symbol>
<symbol id="arrow-up" viewBox="0 0 255 255">
<title>arrow-up</title>
<polygon points="0,191.25 127.5,63.75 255,191.25 "/></symbol>
<symbol id="navigate-up" viewBox="0 0 306 306">
<title>navigate-up</title>
<polygon points="153,58.65 0,211.65 35.7,247.35 153,130.05 270.3,247.35 306,211.65 "/></symbol>
<symbol id="video" viewBox="0 0 459 459">
<title>video</title>
<path d="M357,191.25V102c0-15.3-10.2-25.5-25.5-25.5h-306C10.2,76.5,0,86.7,0,102v255c0,15.3,10.2,25.5,25.5,25.5h306 c15.3,0,25.5-10.2,25.5-25.5v-89.25l102,102V89.25L357,191.25z"/></symbol>
<symbol id="info" viewBox="0 0 510 510">
<title>info</title>
<path d="M255,0C114.75,0,0,114.75,0,255s114.75,255,255,255s255-114.75,255-255S395.25,0,255,0z M280.5,382.5h-51v-153h51V382.5z M280.5,178.5h-51v-51h51V178.5z"/></symbol>
<symbol id="book" viewBox="0 0 459 459">
<title>book</title>
<path d="M357,0H102C73.95,0,51,22.95,51,51v408l178.5-76.5L408,459V51C408,22.95,385.05,0,357,0z M357,382.5l-127.5-56.1 L102,382.5V51h255V382.5z"/></symbol>
<symbol id="users" viewBox="0 0 561 561">
<title>users</title>
<path d="M382.5,255c43.35,0,76.5-33.15,76.5-76.5S425.85,102,382.5,102S306,135.15,306,178.5S339.15,255,382.5,255z M178.5,255 c43.35,0,76.5-33.15,76.5-76.5S221.85,102,178.5,102S102,135.15,102,178.5S135.15,255,178.5,255z M178.5,306 C119.85,306,0,336.6,0,395.25V459h357v-63.75C357,336.6,237.15,306,178.5,306z M382.5,306c-7.65,0-15.3,0-25.5,2.55 c30.6,20.4,51,51,51,86.7V459h153v-63.75C561,336.6,441.15,306,382.5,306z"/></symbol>
<symbol id="like" viewBox="0 0 561 561">
<title>like</title>
<path d="M0,535.5h102v-306H0V535.5z M561,255c0-28.05-22.95-51-51-51H349.35l25.5-117.3c0-2.55,0-5.1,0-7.65 c0-10.2-5.1-20.4-10.199-28.05L336.6,25.5L168.3,193.8c-10.2,7.65-15.3,20.4-15.3,35.7v255c0,28.05,22.95,51,51,51h229.5 c20.4,0,38.25-12.75,45.9-30.6l76.5-181.051c2.55-5.1,2.55-12.75,2.55-17.85v-51H561C561,257.55,561,255,561,255z"/></symbol>
<symbol id="star" viewBox="0 0 510 510">
<title>star</title>
<path d="M510,197.472l-183.37-15.734L255,12.75l-71.629,168.988L0,197.472l139.103,120.539L97.41,497.25L255,402.186 l157.59,95.064l-41.692-179.239L510,197.472z M255,354.348l-95.957,57.886l25.398-109.166l-84.736-73.389l111.69-9.588 L255,117.172l43.605,102.918l111.689,9.588l-84.711,73.389l25.398,109.166L255,354.348z"/></symbol>
<symbol id="notifications" viewBox="0 0 510 510">
<title>notifications</title>
<path d="M255,510c28.05,0,51-22.95,51-51H204C204,487.05,226.95,510,255,510z M420.75,357V216.75 c0-79.05-53.55-142.8-127.5-160.65V38.25C293.25,17.85,275.4,0,255,0c-20.4,0-38.25,17.85-38.25,38.25V56.1 c-73.95,17.85-127.5,81.6-127.5,160.65V357l-51,51v25.5h433.5V408L420.75,357z M369.75,382.5h-229.5V216.75 C140.25,153,191.25,102,255,102s114.75,51,114.75,114.75V382.5z"/></symbol>
<symbol id="help" viewBox="0 0 510 510">
<title>help</title>
<path d="M255,0C114.75,0,0,114.75,0,255s114.75,255,255,255s255-114.75,255-255S395.25,0,255,0z M280.5,433.5h-51v-51h51V433.5z M334.05,237.15L311.1,260.1c-20.399,17.851-30.6,33.15-30.6,71.4h-51v-12.75c0-28.05,10.2-53.55,30.6-71.4L290.7,214.2 c10.2-7.65,15.3-20.4,15.3-35.7c0-28.05-22.95-51-51-51s-51,22.95-51,51h-51c0-56.1,45.9-102,102-102c56.1,0,102,45.9,102,102 C357,201.45,346.8,221.85,334.05,237.15z"/></symbol>
<symbol id="time" viewBox="0 0 510 510">
<title>time</title>
<path style="fill-opacity:0.9;" d="M255,0C114.75,0,0,114.75,0,255s114.75,255,255,255s255-114.75,255-255S395.25,0,255,0z M255,459c-112.2,0-204-91.8-204-204S142.8,51,255,51s204,91.8,204,204S367.2,459,255,459z"/>
<polygon style="fill-opacity:0.9;" points="267.75,127.5 229.5,127.5 229.5,280.5 362.1,362.1 382.5,328.95 267.75,260.1 "/></symbol>
<symbol id="camera" viewBox="0 0 510 510">
<title>camera</title><circle cx="255" cy="280.5" r="81.6"/>
<path d="M178.5,25.5l-45.9,51H51c-28.05,0-51,22.95-51,51v306c0,28.05,22.95,51,51,51h408c28.05,0,51-22.95,51-51v-306 c0-28.05-22.95-51-51-51h-81.6l-45.9-51H178.5z M255,408c-71.4,0-127.5-56.1-127.5-127.5c0-71.4,56.1-127.5,127.5-127.5 c71.4,0,127.5,56.1,127.5,127.5C382.5,351.9,326.4,408,255,408z"/></symbol>
<symbol id="view" viewBox="0 0 561 561">
<title>view</title>
<path d="M280.5,89.25C153,89.25,43.35,168.3,0,280.5c43.35,112.2,153,191.25,280.5,191.25S517.65,392.7,561,280.5 C517.65,168.3,408,89.25,280.5,89.25z M280.5,408C209.1,408,153,351.9,153,280.5c0-71.4,56.1-127.5,127.5-127.5 c71.4,0,127.5,56.1,127.5,127.5C408,351.9,351.9,408,280.5,408z M280.5,204c-43.35,0-76.5,33.15-76.5,76.5 c0,43.35,33.15,76.5,76.5,76.5c43.35,0,76.5-33.15,76.5-76.5C357,237.15,323.85,204,280.5,204z"/></symbol>
<symbol id="play" viewBox="0 0 510 510">
<title>play</title>
<path d="M204,369.75L357,255L204,140.25V369.75z M255,0C114.75,0,0,114.75,0,255s114.75,255,255,255s255-114.75,255-255 S395.25,0,255,0z M255,459c-112.2,0-204-91.8-204-204S142.8,51,255,51s204,91.8,204,204S367.2,459,255,459z"/></symbol>
<symbol id="edit" viewBox="0 0 459 459">
<title>edit</title>
<path d="M0,362.1V459h96.9l280.5-283.05l-96.9-96.9L0,362.1z M451.35,102c10.2-10.2,10.2-25.5,0-35.7L392.7,7.649 c-10.2-10.2-25.5-10.2-35.7,0l-45.9,45.9l96.9,96.9L451.35,102z"/></symbol>
<symbol id="delete" viewBox="0 0 459 459">
<title>delete</title>
<path d="M76.5,408c0,28.05,22.95,51,51,51h204c28.05,0,51-22.95,51-51V102h-306V408z M408,25.5h-89.25L293.25,0h-127.5l-25.5,25.5 H51v51h357V25.5z"/></symbol>
<symbol id="circle-check" viewBox="0 0 510 510">
<title>circle-check</title>
<path d="M255,0C114.75,0,0,114.75,0,255s114.75,255,255,255s255-114.75,255-255S395.25,0,255,0z M204,382.5L76.5,255l35.7-35.7 l91.8,91.8l193.8-193.8l35.7,35.7L204,382.5z"/></symbol>
<symbol id="happy" viewBox="0 0 510 510">
<title>happy</title>
<path d="M255,0C114.75,0,0,114.75,0,255s114.75,255,255,255s255-114.75,255-255S395.25,0,255,0z M344.25,153 c20.4,0,38.25,17.85,38.25,38.25s-17.85,38.25-38.25,38.25S306,211.65,306,191.25S323.85,153,344.25,153z M165.75,153 c20.4,0,38.25,17.85,38.25,38.25s-17.85,38.25-38.25,38.25s-38.25-17.85-38.25-38.25S145.35,153,165.75,153z M255,408 c-66.3,0-122.4-43.35-142.8-102h285.6C377.4,364.65,321.3,408,255,408z"/></symbol>
<symbol id="arrow-down" viewBox="0 0 255 255">
<title>arrow-down</title>
<polygon points="0,63.75 127.5,191.25 255,63.75 "/></symbol>
<symbol id="user" viewBox="0 0 408 408">
<title>user</title>
<path d="M204,204c56.1,0,102-45.9,102-102S260.1,0,204,0c-56.1,0-102,45.9-102,102S147.9,204,204,204z M204,255 C135.15,255,0,288.15,0,357v51h408v-51C408,288.15,272.85,255,204,255z"/></symbol>
<symbol id="settings" viewBox="0 0 507.451 507.45">
<title>settings</title>
<path d="M440.813,280.5c0-7.65,2.55-15.3,2.55-25.5s0-17.85-2.55-25.5l53.55-43.35c5.1-5.1,5.1-10.2,2.55-15.3l-51-89.25 c-2.55-2.55-7.649-5.1-15.3-2.55l-63.75,25.5c-12.75-10.2-28.05-17.85-43.35-25.5l-10.2-66.3C315.863,5.1,308.212,0,303.113,0 h-102c-5.101,0-12.75,5.1-12.75,10.2l-10.2,68.85c-15.3,5.1-28.05,15.3-43.35,25.5l-61.2-25.5c-7.65-2.55-12.75,0-17.851,5.1 l-51,89.25c-2.55,2.55,0,10.2,5.1,15.3l53.55,40.8c0,7.65-2.55,15.3-2.55,25.5s0,17.85,2.55,25.5l-53.55,43.35 c-5.1,5.101-5.1,10.2-2.55,15.301l51,89.25c2.55,2.55,7.649,5.1,15.3,2.55l63.75-25.5c12.75,10.2,28.05,17.85,43.35,25.5 l10.2,66.3c0,5.1,5.1,10.2,12.75,10.2h102c5.101,0,12.75-5.101,12.75-10.2l10.2-66.3c15.3-7.65,30.6-15.3,43.35-25.5l63.75,25.5 c5.101,2.55,12.75,0,15.301-5.101l51-89.25c2.55-5.1,2.55-12.75-2.551-15.3L440.813,280.5z M252.113,344.25 c-48.45,0-89.25-40.8-89.25-89.25s40.8-89.25,89.25-89.25s89.25,40.8,89.25,89.25S300.563,344.25,252.113,344.25z"/></symbol>
<symbol id="twitter" viewBox="0 0 510 510">
<title>twitter</title>
<path d="M459,0H51C22.95,0,0,22.95,0,51v408c0,28.05,22.95,51,51,51h408c28.05,0,51-22.95,51-51V51C510,22.95,487.05,0,459,0z M400.35,186.15c-2.55,117.3-76.5,198.9-188.7,204C165.75,392.7,132.6,377.4,102,359.55c33.15,5.101,76.5-7.649,99.45-28.05 c-33.15-2.55-53.55-20.4-63.75-48.45c10.2,2.55,20.4,0,28.05,0c-30.6-10.2-51-28.05-53.55-68.85c7.65,5.1,17.85,7.65,28.05,7.65 c-22.95-12.75-38.25-61.2-20.4-91.8c33.15,35.7,73.95,66.3,140.25,71.4c-17.85-71.4,79.051-109.65,117.301-61.2 c17.85-2.55,30.6-10.2,43.35-15.3c-5.1,17.85-15.3,28.05-28.05,38.25c12.75-2.55,25.5-5.1,35.7-10.2 C425.85,165.75,413.1,175.95,400.35,186.15z"/></symbol>
<symbol id="circle-add" viewBox="0 0 510 510">
<title>circle-add</title>
<path d="M280.5,127.5h-51v102h-102v51h102v102h51v-102h102v-51h-102V127.5z M255,0C114.75,0,0,114.75,0,255s114.75,255,255,255 s255-114.75,255-255S395.25,0,255,0z M255,459c-112.2,0-204-91.8-204-204S142.8,51,255,51s204,91.8,204,204S367.2,459,255,459z"/></symbol>
<symbol id="star-active" viewBox="0 0 306 306">
<title>star-active</title>
<polygon points="153,230.775 247.35,299.625 211.65,187.425 306,121.125 191.25,121.125 153,6.375 114.75,121.125 0,121.125 94.35,187.425 58.65,299.625 "/></symbol>
<symbol id="menu" viewBox="0 0 459 459">
<title>menu</title>
<path d="M0,382.5h459v-51H0V382.5z M0,255h459v-51H0V255z M0,76.5v51h459v-51H0z"/></symbol>
<symbol id="check" viewBox="0 0 448.8 448.8">
<title>check</title>
<polygon points="142.8,323.85 35.7,216.75 0,252.45 142.8,395.25 448.8,89.25 413.1,53.55 "/></symbol>
<symbol id="add" viewBox="0 0 357 357">
<title>add</title>
<path d="M357,204H204v153h-51V204H0v-51h153V0h51v153h153V204z"/></symbol>
<symbol id="navigate-left" viewBox="0 0 306 306">
<title>navigate-left</title>
<polygon points="247.35,270.3 130.05,153 247.35,35.7 211.65,0 58.65,153 211.65,306 "/></symbol>
<symbol id="arrow-right" viewBox="0 0 357 357">
<title>arrow-right</title>
<polygon points="38.25,0 38.25,357 318.75,178.5 "/></symbol>
<symbol id="back" viewBox="0 0 459 459">
<title>back</title>
<path d="M178.5,140.25v-102L0,216.75l178.5,178.5V290.7c127.5,0,216.75,40.8,280.5,130.05C433.5,293.25,357,165.75,178.5,140.25z"/></symbol>
<symbol id="facebook" viewBox="0 0 510 510">
<title>facebook</title>
<path d="M459,0H51C22.95,0,0,22.95,0,51v408c0,28.05,22.95,51,51,51h408c28.05,0,51-22.95,51-51V51C510,22.95,487.05,0,459,0z M433.5,51v76.5h-51c-15.3,0-25.5,10.2-25.5,25.5v51h76.5v76.5H357V459h-76.5V280.5h-51V204h51v-63.75 C280.5,91.8,321.3,51,369.75,51H433.5z"/></symbol>
<symbol id="close" viewBox="0 0 357 357">
<title>close</title>
<polygon points="357,35.7 321.3,0 178.5,142.8 35.7,0 0,35.7 142.8,178.5 0,321.3 35.7,357 178.5,214.2 321.3,357 357,321.3 214.2,178.5 "/></symbol>
<symbol id="heart-active" viewBox="0 0 510 510">
<title>heart-active</title>
<path d="M255,489.6l-35.7-35.7C86.7,336.6,0,257.55,0,160.65C0,81.6,61.2,20.4,140.25,20.4c43.35,0,86.7,20.4,114.75,53.55 C283.05,40.8,326.4,20.4,369.75,20.4C448.8,20.4,510,81.6,510,160.65c0,96.9-86.7,175.95-219.3,293.25L255,489.6z"/></symbol>
<symbol id="search" viewBox="0 0 446.25 446.25">
<title>search</title>
<path d="M318.75,280.5h-20.4l-7.649-7.65c25.5-28.05,40.8-66.3,40.8-107.1C331.5,73.95,257.55,0,165.75,0S0,73.95,0,165.75 S73.95,331.5,165.75,331.5c40.8,0,79.05-15.3,107.1-40.8l7.65,7.649v20.4L408,446.25L446.25,408L318.75,280.5z M165.75,280.5 C102,280.5,51,229.5,51,165.75S102,51,165.75,51S280.5,102,280.5,165.75S229.5,280.5,165.75,280.5z"/></symbol>
<symbol id="navigate-down" viewBox="0 0 306 306">
<title>navigate-down</title>
<polygon points="270.3,58.65 153,175.95 35.7,58.65 0,94.35 153,247.35 306,94.35 "/></symbol>
<symbol id="download" viewBox="0 0 433.5 433.5">
<title>download</title>
<path d="M395.25,153h-102V0h-153v153h-102l178.5,178.5L395.25,153z M38.25,382.5v51h357v-51H38.25z"/></symbol>
<symbol id="navigate-right" viewBox="0 0 306 306">
<title>navigate-right</title>
<polygon points="94.35,0 58.65,35.7 175.95,153 58.65,270.3 94.35,306 247.35,153 "/></symbol>
<symbol id="code" viewBox="0 0 522.468 522.469">
<title>code</title>
<path d="M325.762,70.513l-17.706-4.854c-2.279-0.76-4.524-0.521-6.707,0.715c-2.19,1.237-3.669,3.094-4.429,5.568L190.426,440.53 c-0.76,2.475-0.522,4.809,0.715,6.995c1.237,2.19,3.09,3.665,5.568,4.425l17.701,4.856c2.284,0.766,4.521,0.526,6.71-0.712 c2.19-1.243,3.666-3.094,4.425-5.564L332.042,81.936c0.759-2.474,0.523-4.808-0.716-6.999 C330.088,72.747,328.237,71.272,325.762,70.513z"/>
<path d="M166.167,142.465c0-2.474-0.953-4.665-2.856-6.567l-14.277-14.276c-1.903-1.903-4.093-2.857-6.567-2.857 s-4.665,0.955-6.567,2.857L2.856,254.666C0.95,256.569,0,258.759,0,261.233c0,2.474,0.953,4.664,2.856,6.566l133.043,133.044 c1.902,1.906,4.089,2.854,6.567,2.854s4.665-0.951,6.567-2.854l14.277-14.268c1.903-1.902,2.856-4.093,2.856-6.57 c0-2.471-0.953-4.661-2.856-6.563L51.107,261.233l112.204-112.201C165.217,147.13,166.167,144.939,166.167,142.465z"/>
<path d="M519.614,254.663L386.567,121.619c-1.902-1.902-4.093-2.857-6.563-2.857c-2.478,0-4.661,0.955-6.57,2.857l-14.271,14.275 c-1.902,1.903-2.851,4.09-2.851,6.567s0.948,4.665,2.851,6.567l112.206,112.204L359.163,373.442 c-1.902,1.902-2.851,4.093-2.851,6.563c0,2.478,0.948,4.668,2.851,6.57l14.271,14.268c1.909,1.906,4.093,2.854,6.57,2.854 c2.471,0,4.661-0.951,6.563-2.854L519.614,267.8c1.903-1.902,2.854-4.096,2.854-6.57 C522.468,258.755,521.517,256.565,519.614,254.663z"/></symbol>
<symbol id="image" viewBox="0 0 459 459">
<title>image</title>
<path d="M459,408V51c0-28.05-22.95-51-51-51H51C22.95,0,0,22.95,0,51v357c0,28.05,22.95,51,51,51h357 C436.05,459,459,436.05,459,408z M140.25,267.75l63.75,76.5l89.25-114.75L408,382.5H51L140.25,267.75z"/></symbol>
<symbol id="move" viewBox="0 0 469.333 469.333">
<title>move</title><g> <g> <polygon points="192,213.333 64.213,213.333 85.76,204.8 126.293,164.48 98.56,136.107 0,234.453 98.347,332.8 126.293,304.853 85.12,263.68 64.427,256 192,256 "/> </g> </g><g> <g> <polygon points="370.773,136.107 343.04,164.48 383.573,204.8 405.12,213.333 277.333,213.333 277.333,256 404.907,256 384.213,263.68 343.04,304.853 370.987,332.8 469.333,234.453 "/> </g> </g><g> <g> <polygon points="304.853,343.04 263.68,384.213 256,404.907 256,277.333 213.333,277.333 213.333,405.12 204.8,383.573 164.48,343.04 136.107,370.773 234.453,469.333 332.8,370.987 "/> </g> </g><g> <g> <polygon points="234.453,0 136.107,98.56 164.48,126.293 204.8,85.76 213.333,64.213 213.333,192 256,192 256,64.427 263.68,85.12 304.853,126.293 332.8,98.347 "/> </g> </g></symbol>
<symbol id="menu" viewBox="0 0 459 459">
<title>menu</title>
<path d="M0,382.5h459v-51H0V382.5z M0,255h459v-51H0V255z M0,76.5v51h459v-51H0z"/></symbol>
<symbol id="check" viewBox="0 0 448.8 448.8">
<title>check</title>
<polygon points="142.8,323.85 35.7,216.75 0,252.45 142.8,395.25 448.8,89.25 413.1,53.55 "/></symbol>
<symbol id="notifications-active" viewBox="0 0 510 510">
<title>notifications-active</title>
<path d="M255,510c28.05,0,51-22.95,51-51H204C204,487.05,226.95,510,255,510z M420.75,357V216.75 c0-79.05-53.55-142.8-127.5-160.65V38.25C293.25,17.85,275.4,0,255,0c-20.4,0-38.25,17.85-38.25,38.25V56.1 c-73.95,17.85-127.5,81.6-127.5,160.65V357l-51,51v25.5h433.5V408L420.75,357z"/></symbol>
<symbol id="delete" viewBox="0 0 459 459">
<title>delete</title>
<path d="M76.5,408c0,28.05,22.95,51,51,51h204c28.05,0,51-22.95,51-51V102h-306V408z M408,25.5h-89.25L293.25,0h-127.5l-25.5,25.5 H51v51h357V25.5z"/></symbol>
<symbol id="navigate-down" viewBox="0 0 306 306">
<title>navigate-down</title>
<polygon points="270.3,58.65 153,175.95 35.7,58.65 0,94.35 153,247.35 306,94.35 "/></symbol>
<symbol id="edit" viewBox="0 0 459 459">
<title>edit</title>
<path d="M0,362.1V459h96.9l280.5-283.05l-96.9-96.9L0,362.1z M451.35,102c10.2-10.2,10.2-25.5,0-35.7L392.7,7.649 c-10.2-10.2-25.5-10.2-35.7,0l-45.9,45.9l96.9,96.9L451.35,102z"/></symbol>
<symbol id="pdf" viewBox="0 0 459 459">
<title>pdf</title>
<path d="M211.65,142.8L211.65,142.8C214.2,142.8,214.2,142.8,211.65,142.8c2.55-10.2,5.1-15.3,5.1-22.95v-5.1 c2.55-12.75,2.55-22.95,0-25.5c0,0,0,0,0-2.55l-2.55-2.55l0,0l0,0c0,0,0,2.55-2.55,2.55C206.55,102,206.55,119.85,211.65,142.8 L211.65,142.8z M135.15,318.75c-5.1,2.55-10.2,5.1-12.75,7.65c-17.85,15.3-30.6,33.149-33.15,40.8l0,0l0,0l0,0 C104.55,364.65,119.85,349.35,135.15,318.75C137.7,318.75,137.7,318.75,135.15,318.75C137.7,318.75,135.15,318.75,135.15,318.75z M369.75,280.5c-2.55-2.55-12.75-10.2-48.45-10.2c-2.55,0-2.55,0-5.1,0l0,0c0,0,0,0,0,2.55c17.85,7.65,35.7,12.75,48.45,12.75 c2.55,0,2.55,0,5.1,0l0,0h2.55c0,0,0,0,0-2.55l0,0C372.3,283.05,369.75,283.05,369.75,280.5z M408,0H51C22.95,0,0,22.95,0,51v357 c0,28.05,22.95,51,51,51h357c28.05,0,51-22.95,51-51V51C459,22.95,436.05,0,408,0z M379.95,300.9c-5.101,2.55-12.75,5.1-22.95,5.1 c-20.4,0-51-5.1-76.5-17.85c-43.35,5.1-76.5,10.199-102,20.399c-2.55,0-2.55,0-5.1,2.55c-30.6,53.551-56.1,79.051-76.5,79.051 c-5.1,0-7.65,0-10.2-2.551l-12.75-7.649v-2.55c-2.55-5.101-2.55-7.65-2.55-12.75c2.55-12.75,17.85-35.7,48.45-53.551 c5.1-2.55,12.75-7.649,22.95-12.75c7.65-12.75,15.3-28.05,25.5-45.899c12.75-25.5,20.4-51,28.05-73.95l0,0 c-10.2-30.6-15.3-48.45-5.1-84.15c2.55-10.2,10.2-20.4,20.4-20.4h5.1c5.1,0,10.2,2.55,15.3,5.1c17.851,17.85,10.2,58.65,0,91.8 c0,2.55,0,2.55,0,2.55c10.2,28.05,25.5,51,40.8,66.3c7.65,5.1,12.75,10.2,22.95,15.3c12.75,0,22.95-2.55,33.15-2.55 c30.6,0,51,5.1,58.649,17.85c2.551,5.101,2.551,10.2,2.551,15.3C387.6,288.15,385.05,295.8,379.95,300.9z M214.2,201.45 c-5.1,17.85-15.3,38.25-25.5,61.2c-5.1,10.199-10.2,17.85-15.3,28.05h2.55h2.55l0,0c33.15-12.75,63.75-20.4,84.15-22.95 c-5.101-2.55-7.65-5.1-10.2-7.65C239.7,244.8,224.4,224.4,214.2,201.45z"/></symbol>
<symbol id="close" viewBox="0 0 357 357">
<title>close</title>
<polygon points="357,35.7 321.3,0 178.5,142.8 35.7,0 0,35.7 142.8,178.5 0,321.3 35.7,357 178.5,214.2 321.3,357 357,321.3 214.2,178.5 "/></symbol>
<symbol id="video" viewBox="0 0 459 459">
<title>video</title>
<path d="M357,191.25V102c0-15.3-10.2-25.5-25.5-25.5h-306C10.2,76.5,0,86.7,0,102v255c0,15.3,10.2,25.5,25.5,25.5h306 c15.3,0,25.5-10.2,25.5-25.5v-89.25l102,102V89.25L357,191.25z"/></symbol>
<symbol id="arrows-select" viewBox="0 0 459 459">
<title>arrows-select</title>
<path d="M229.5,71.4l81.6,81.6l35.7-35.7L229.5,0L112.2,117.3l35.7,35.7L229.5,71.4z M229.5,387.6L147.9,306l-35.7,35.7L229.5,459 l117.3-117.3L311.1,306L229.5,387.6z"/></symbol>
<symbol id="navigate-up" viewBox="0 0 306 306">
<title>navigate-up</title>
<polygon points="35.7,247.35 153,130.05 270.3,247.35 306,211.65 153,58.65 0,211.65 "/></symbol>
<symbol id="question" viewBox="0 0 510 510">
<title>question</title>
<path d="M255,0C114.75,0,0,114.75,0,255s114.75,255,255,255s255-114.75,255-255S395.25,0,255,0z M280.5,433.5h-51v-51h51V433.5z M334.05,237.15L311.1,260.1c-20.399,17.851-30.6,33.15-30.6,71.4h-51v-12.75c0-28.05,10.2-53.55,30.6-71.4L290.7,214.2 c10.2-7.65,15.3-20.4,15.3-35.7c0-28.05-22.95-51-51-51s-51,22.95-51,51h-51c0-56.1,45.9-102,102-102c56.1,0,102,45.9,102,102 C357,201.45,346.8,221.85,334.05,237.15z"/></symbol>
<symbol id="options" viewBox="0 0 408 408">
<title>options</title>
<path d="M51,153c-28.05,0-51,22.95-51,51s22.95,51,51,51s51-22.95,51-51S79.05,153,51,153z M357,153c-28.05,0-51,22.95-51,51 s22.95,51,51,51s51-22.95,51-51S385.05,153,357,153z M204,153c-28.05,0-51,22.95-51,51s22.95,51,51,51s51-22.95,51-51 S232.05,153,204,153z"/></symbol>
<symbol id="duplicate" viewBox="0 0 561 561">
<title>duplicate</title>
<path d="M395.25,0h-306c-28.05,0-51,22.95-51,51v357h51V51h306V0z M471.75,102h-280.5c-28.05,0-51,22.95-51,51v357 c0,28.05,22.95,51,51,51h280.5c28.05,0,51-22.95,51-51V153C522.75,124.95,499.8,102,471.75,102z M471.75,510h-280.5V153h280.5V510 z"/></symbol>
</defs>
</svg>
